<svg version="1.1" 
    xmlns="http://www.w3.org/2000/svg" 
    xmlns:xlink="http://www.w3.org/1999/xlink" x="0px" y="0px" viewBox="0 0 1000 1000" enable-background="new 0 0 1000 1000" xml:space="preserve">
    <g>
        <path fill="#fff" d="M938.9,448.9H551.1V61.4c0-28.2-22.9-51.1-51.1-51.1c-28.2,0-51.1,22.9-51.1,51.1v387.6H61.1C32.9,448.9,10,471.8,10,500c0,28.2,22.9,51.1,51.1,51.1h387.8v387.5c0,28.2,22.9,51.1,51.1,51.1c28.2,0,51.1-22.9,51.1-51.1V551.1h387.8c28.2,0,51.1-22.9,51.1-51.1C990,471.8,967.1,448.9,938.9,448.9z"/>
    </g>
</svg>